<svg width="147" height="51" viewBox="0 0 147 51" fill="none" xmlns="http://www.w3.org/2000/svg">
<rect x="0.753662" width="145.746" height="50.8955" rx="7.71144" fill="black"/>
<path d="M58.7252 13.3676C58.5463 12.9913 58.2872 12.7014 57.9479 12.4978C57.6086 12.288 57.2138 12.1832 56.7634 12.1832C56.3131 12.1832 55.9059 12.288 55.5419 12.4978C55.1841 12.7014 54.9003 12.9975 54.6906 13.3862C54.487 13.7686 54.3852 14.2128 54.3852 14.7187C54.3852 15.2246 54.487 15.6687 54.6906 16.0512C54.9003 16.4337 55.1841 16.7298 55.5419 16.9396C55.9059 17.1432 56.3131 17.245 56.7634 17.245C57.3927 17.245 57.9109 17.0568 58.3181 16.6805C58.7252 16.3042 58.9627 15.7952 59.0306 15.1536H56.4581V14.4688H59.9282V15.1166C59.8788 15.6471 59.7123 16.1345 59.4285 16.5787C59.1447 17.0167 58.7715 17.3653 58.3088 17.6244C57.8461 17.8773 57.331 18.0038 56.7634 18.0038C56.165 18.0038 55.619 17.865 55.1255 17.5873C54.632 17.3036 54.2402 16.9118 53.9503 16.4121C53.6665 15.9124 53.5246 15.3479 53.5246 14.7187C53.5246 14.0894 53.6665 13.525 53.9503 13.0253C54.2402 12.5194 54.632 12.1276 55.1255 11.85C55.619 11.5663 56.165 11.4244 56.7634 11.4244C57.4482 11.4244 58.0528 11.594 58.5772 11.9333C59.1077 12.2726 59.4933 12.7507 59.7339 13.3676H58.7252ZM65.6685 15.2184C65.6685 15.3788 65.6592 15.5484 65.6407 15.7273H61.5876C61.6184 16.227 61.7881 16.6188 62.0965 16.9026C62.4112 17.1802 62.7906 17.319 63.2347 17.319C63.5987 17.319 63.901 17.2357 64.1416 17.0691C64.3884 16.8964 64.5611 16.6681 64.6598 16.3844H65.5667C65.431 16.8717 65.1595 17.2696 64.7524 17.5781C64.3452 17.8804 63.8393 18.0315 63.2347 18.0315C62.7536 18.0315 62.3217 17.9236 61.9392 17.7076C61.5629 17.4917 61.2668 17.1864 61.0509 16.7915C60.8349 16.3905 60.727 15.9278 60.727 15.4035C60.727 14.8791 60.8319 14.4195 61.0416 14.0247C61.2514 13.6298 61.5444 13.3275 61.9207 13.1178C62.3032 12.9019 62.7412 12.7939 63.2347 12.7939C63.7159 12.7939 64.1416 12.8988 64.5118 13.1085C64.8819 13.3183 65.1657 13.6082 65.3631 13.9784C65.5667 14.3424 65.6685 14.7557 65.6685 15.2184ZM64.7986 15.0426C64.7986 14.7218 64.7277 14.4472 64.5858 14.219C64.4439 13.9846 64.2496 13.8087 64.0028 13.6915C63.7622 13.5681 63.4939 13.5065 63.1977 13.5065C62.7721 13.5065 62.4081 13.6422 62.1058 13.9136C61.8097 14.1851 61.64 14.5614 61.5968 15.0426H64.7986ZM67.8072 13.5712V16.5602C67.8072 16.8069 67.8596 16.9828 67.9645 17.0876C68.0694 17.1864 68.2514 17.2357 68.5105 17.2357H69.1305V17.9482H68.3717C67.9028 17.9482 67.5512 17.8403 67.3167 17.6244C67.0823 17.4084 66.9651 17.0537 66.9651 16.5602V13.5712H66.3081V12.8772H66.9651V11.6002H67.8072V12.8772H69.1305V13.5712H67.8072ZM73.0527 12.0536C72.8923 12.0536 72.7566 11.9981 72.6456 11.887C72.5345 11.776 72.479 11.6403 72.479 11.4799C72.479 11.3195 72.5345 11.1838 72.6456 11.0727C72.7566 10.9617 72.8923 10.9062 73.0527 10.9062C73.207 10.9062 73.3365 10.9617 73.4414 11.0727C73.5524 11.1838 73.608 11.3195 73.608 11.4799C73.608 11.6403 73.5524 11.776 73.4414 11.887C73.3365 11.9981 73.207 12.0536 73.0527 12.0536ZM73.4599 12.8772V17.9482H72.6178V12.8772H73.4599ZM75.9223 13.5712V16.5602C75.9223 16.8069 75.9747 16.9828 76.0796 17.0876C76.1845 17.1864 76.3664 17.2357 76.6255 17.2357H77.2455V17.9482H76.4867C76.0179 17.9482 75.6662 17.8403 75.4318 17.6244C75.1974 17.4084 75.0802 17.0537 75.0802 16.5602V13.5712H74.4232V12.8772H75.0802V11.6002H75.9223V12.8772H77.2455V13.5712H75.9223ZM83.6571 18.013C83.0587 18.013 82.5127 17.8742 82.0192 17.5966C81.5256 17.3128 81.1339 16.9211 80.8439 16.4214C80.5602 15.9155 80.4183 15.3479 80.4183 14.7187C80.4183 14.0894 80.5602 13.525 80.8439 13.0253C81.1339 12.5194 81.5256 12.1276 82.0192 11.85C82.5127 11.5663 83.0587 11.4244 83.6571 11.4244C84.2617 11.4244 84.8107 11.5663 85.3042 11.85C85.7978 12.1276 86.1864 12.5163 86.4702 13.016C86.754 13.5157 86.8959 14.0833 86.8959 14.7187C86.8959 15.3541 86.754 15.9217 86.4702 16.4214C86.1864 16.9211 85.7978 17.3128 85.3042 17.5966C84.8107 17.8742 84.2617 18.013 83.6571 18.013ZM83.6571 17.282C84.1074 17.282 84.5115 17.1771 84.8693 16.9673C85.2333 16.7576 85.5171 16.4584 85.7207 16.0697C85.9304 15.6811 86.0353 15.2307 86.0353 14.7187C86.0353 14.2005 85.9304 13.7501 85.7207 13.3676C85.5171 12.979 85.2364 12.6798 84.8786 12.47C84.5208 12.2603 84.1136 12.1554 83.6571 12.1554C83.2006 12.1554 82.7934 12.2603 82.4356 12.47C82.0778 12.6798 81.794 12.979 81.5842 13.3676C81.3807 13.7501 81.2789 14.2005 81.2789 14.7187C81.2789 15.2307 81.3807 15.6811 81.5842 16.0697C81.794 16.4584 82.0778 16.7576 82.4356 16.9673C82.7996 17.1771 83.2067 17.282 83.6571 17.282ZM90.4783 12.7847C91.0952 12.7847 91.5949 12.9728 91.9774 13.3491C92.3599 13.7193 92.5511 14.256 92.5511 14.9593V17.9482H91.7183V15.0796C91.7183 14.5737 91.5918 14.1881 91.3389 13.9229C91.086 13.6514 90.7405 13.5157 90.3025 13.5157C89.8583 13.5157 89.5036 13.6545 89.2383 13.9321C88.9792 14.2097 88.8497 14.6138 88.8497 15.1444V17.9482H88.0076V12.8772H88.8497V13.599C89.0162 13.3399 89.2414 13.1394 89.5252 12.9975C89.8151 12.8556 90.1328 12.7847 90.4783 12.7847Z" fill="white"/>
<path fill-rule="evenodd" clip-rule="evenodd" d="M45.1603 33.0924C45.1354 30.4894 47.2871 29.2348 47.3842 29.1754C46.176 27.404 44.2909 27.1615 43.6195 27.1332C42.017 26.9723 40.492 28.078 39.6783 28.078C38.8669 28.078 37.6105 27.1577 36.2825 27.1839C34.5338 27.2082 32.923 28.199 32.0227 29.7631C30.2084 32.9134 31.559 37.579 33.3283 40.1347C34.1918 41.3826 35.224 42.7904 36.5775 42.7396C37.883 42.6884 38.3746 41.8976 39.9492 41.8976C41.525 41.8976 41.9676 42.7396 43.3485 42.7136C44.7495 42.6884 45.6403 41.439 46.4986 40.1859C47.4907 38.7344 47.8992 37.3293 47.923 37.2564C47.8928 37.2454 45.1886 36.2072 45.1603 33.0924L45.1603 33.0924Z" fill="white"/>
<path fill-rule="evenodd" clip-rule="evenodd" d="M42.5714 25.444C43.2906 24.5722 43.7732 23.3625 43.641 22.1562C42.6058 22.1974 41.3505 22.8473 40.6089 23.7164C39.9423 24.4876 39.3589 25.7191 39.5171 26.9001C40.672 26.9899 41.8518 26.3141 42.5714 25.444Z" fill="white"/>
<path d="M60.2242 35.3072H56.7941L56.2266 36.9482H54.4128L57.5098 28.3238H59.5209L62.6178 36.9482H60.7917L60.2242 35.3072ZM59.7553 33.9254L58.5092 30.3226L57.263 33.9254H59.7553ZM65.5028 31.0999C65.7248 30.7873 66.0292 30.5282 66.4158 30.3226C66.8106 30.1087 67.2589 30.0018 67.7607 30.0018C68.3447 30.0018 68.8711 30.1457 69.34 30.4336C69.8171 30.7215 70.1913 31.1328 70.4628 31.6674C70.7424 32.1939 70.8823 32.8067 70.8823 33.5059C70.8823 34.205 70.7424 34.8261 70.4628 35.3689C70.1913 35.9036 69.8171 36.319 69.34 36.6151C68.8711 36.9112 68.3447 37.0593 67.7607 37.0593C67.2589 37.0593 66.8147 36.9565 66.4281 36.7508C66.0498 36.5452 65.7413 36.2861 65.5028 35.9735V40.2056H63.7754V30.1128H65.5028V31.0999ZM69.1179 33.5059C69.1179 33.0946 69.0315 32.7409 68.8588 32.4448C68.6943 32.1404 68.4722 31.9101 68.1925 31.7538C67.9211 31.5975 67.6249 31.5194 67.3042 31.5194C66.9916 31.5194 66.6955 31.6016 66.4158 31.7662C66.1444 31.9224 65.9223 32.1528 65.7495 32.4571C65.585 32.7614 65.5028 33.1193 65.5028 33.5305C65.5028 33.9418 65.585 34.2996 65.7495 34.604C65.9223 34.9083 66.1444 35.1427 66.4158 35.3072C66.6955 35.4635 66.9916 35.5417 67.3042 35.5417C67.6249 35.5417 67.9211 35.4594 68.1925 35.2949C68.4722 35.1304 68.6943 34.896 68.8588 34.5916C69.0315 34.2873 69.1179 33.9254 69.1179 33.5059ZM73.8649 31.0999C74.0869 30.7873 74.3913 30.5282 74.7779 30.3226C75.1727 30.1087 75.621 30.0018 76.1228 30.0018C76.7068 30.0018 77.2332 30.1457 77.7021 30.4336C78.1791 30.7215 78.5534 31.1328 78.8249 31.6674C79.1045 32.1939 79.2444 32.8067 79.2444 33.5059C79.2444 34.205 79.1045 34.8261 78.8249 35.3689C78.5534 35.9036 78.1791 36.319 77.7021 36.6151C77.2332 36.9112 76.7068 37.0593 76.1228 37.0593C75.621 37.0593 75.1768 36.9565 74.7902 36.7508C74.4119 36.5452 74.1034 36.2861 73.8649 35.9735V40.2056H72.1375V30.1128H73.8649V31.0999ZM77.48 33.5059C77.48 33.0946 77.3936 32.7409 77.2209 32.4448C77.0564 32.1404 76.8343 31.9101 76.5546 31.7538C76.2832 31.5975 75.987 31.5194 75.6662 31.5194C75.3537 31.5194 75.0576 31.6016 74.7779 31.7662C74.5064 31.9224 74.2844 32.1528 74.1116 32.4571C73.9471 32.7614 73.8649 33.1193 73.8649 33.5305C73.8649 33.9418 73.9471 34.2996 74.1116 34.604C74.2844 34.9083 74.5064 35.1427 74.7779 35.3072C75.0576 35.4635 75.3537 35.5417 75.6662 35.5417C75.987 35.5417 76.2832 35.4594 76.5546 35.2949C76.8343 35.1304 77.0564 34.896 77.2209 34.5916C77.3936 34.2873 77.48 33.9254 77.48 33.5059ZM86.4131 37.0346C85.8126 37.0346 85.2698 36.9318 84.7845 36.7262C84.3074 36.5205 83.929 36.2244 83.6493 35.8378C83.3697 35.4512 83.2257 34.9947 83.2175 34.4682H85.0682C85.0929 34.8219 85.2163 35.1016 85.4384 35.3072C85.6687 35.5129 85.9813 35.6157 86.3761 35.6157C86.7791 35.6157 87.0958 35.5211 87.3261 35.3319C87.5565 35.1345 87.6716 34.8795 87.6716 34.5669C87.6716 34.312 87.5935 34.1022 87.4372 33.9377C87.2809 33.7732 87.0835 33.6457 86.8449 33.5552C86.6146 33.4565 86.2938 33.3496 85.8826 33.2344C85.3232 33.0699 84.8667 32.9095 84.513 32.7532C84.1675 32.5887 83.8673 32.3461 83.6123 32.0253C83.3655 31.6962 83.2422 31.2603 83.2422 30.7174C83.2422 30.2074 83.3697 29.7632 83.6247 29.3849C83.8796 29.0065 84.2375 28.7186 84.6981 28.5212C85.1587 28.3155 85.6851 28.2127 86.2774 28.2127C87.1657 28.2127 87.8855 28.4307 88.4366 28.8666C88.9959 29.2944 89.3044 29.8948 89.362 30.668H87.4619C87.4454 30.3719 87.3179 30.1293 87.0794 29.9401C86.8491 29.7427 86.5406 29.644 86.154 29.644C85.8168 29.644 85.5453 29.7303 85.3397 29.9031C85.1423 30.0758 85.0436 30.3267 85.0436 30.6557C85.0436 30.886 85.1176 31.0793 85.2656 31.2356C85.4219 31.3837 85.6111 31.507 85.8332 31.6058C86.0635 31.6962 86.3843 31.8032 86.7956 31.9266C87.3549 32.0911 87.8114 32.2556 88.1651 32.4201C88.5188 32.5846 88.8232 32.8314 89.0782 33.1604C89.3332 33.4894 89.4607 33.9212 89.4607 34.4559C89.4607 34.9165 89.3414 35.3443 89.1029 35.7391C88.8643 36.1339 88.5147 36.4506 88.0541 36.6891C87.5935 36.9195 87.0465 37.0346 86.4131 37.0346ZM92.9694 31.5317V34.8384C92.9694 35.0687 93.0228 35.2373 93.1298 35.3443C93.2449 35.443 93.4341 35.4923 93.6973 35.4923H94.4993V36.9482H93.4136C91.9576 36.9482 91.2297 36.2408 91.2297 34.8261V31.5317H90.4153V30.1128H91.2297V28.4225H92.9694V30.1128H94.4993V31.5317H92.9694ZM98.777 37.0593C98.1189 37.0593 97.5267 36.9153 97.0002 36.6274C96.4738 36.3313 96.0584 35.9159 95.7541 35.3813C95.458 34.8466 95.3099 34.2297 95.3099 33.5305C95.3099 32.8314 95.4621 32.2144 95.7664 31.6798C96.079 31.1451 96.5026 30.7338 97.0373 30.446C97.5719 30.1498 98.1683 30.0018 98.8263 30.0018C99.4844 30.0018 100.081 30.1498 100.615 30.446C101.15 30.7338 101.57 31.1451 101.874 31.6798C102.186 32.2144 102.343 32.8314 102.343 33.5305C102.343 34.2297 102.182 34.8466 101.862 35.3813C101.549 35.9159 101.121 36.3313 100.578 36.6274C100.044 36.9153 99.4432 37.0593 98.777 37.0593ZM98.777 35.554C99.0895 35.554 99.3815 35.48 99.653 35.3319C99.9326 35.1756 100.155 34.9453 100.319 34.641C100.484 34.3366 100.566 33.9665 100.566 33.5305C100.566 32.8807 100.393 32.3831 100.048 32.0376C99.7106 31.6839 99.2952 31.507 98.8016 31.507C98.3081 31.507 97.8927 31.6839 97.5555 32.0376C97.2264 32.3831 97.0619 32.8807 97.0619 33.5305C97.0619 34.1803 97.2223 34.6821 97.5431 35.0358C97.8722 35.3813 98.2834 35.554 98.777 35.554ZM105.337 31.1739C105.559 30.812 105.847 30.5282 106.201 30.3226C106.563 30.1169 106.974 30.0141 107.435 30.0141V31.8278H106.978C106.435 31.8278 106.024 31.9553 105.744 32.2103C105.473 32.4653 105.337 32.9095 105.337 33.5429V36.9482H103.61V30.1128H105.337V31.1739ZM114.952 33.3825C114.952 33.6292 114.936 33.8513 114.903 34.0487H109.906C109.947 34.5423 110.12 34.9289 110.424 35.2085C110.729 35.4882 111.103 35.628 111.547 35.628C112.189 35.628 112.645 35.3525 112.917 34.8014H114.78C114.582 35.4594 114.204 36.0023 113.645 36.43C113.085 36.8495 112.398 37.0593 111.584 37.0593C110.926 37.0593 110.334 36.9153 109.807 36.6274C109.289 36.3313 108.882 35.9159 108.586 35.3813C108.298 34.8466 108.154 34.2297 108.154 33.5305C108.154 32.8231 108.298 32.2021 108.586 31.6674C108.874 31.1328 109.277 30.7215 109.795 30.4336C110.313 30.1457 110.91 30.0018 111.584 30.0018C112.234 30.0018 112.814 30.1416 113.324 30.4213C113.842 30.7009 114.241 31.0999 114.521 31.6181C114.808 32.1281 114.952 32.7162 114.952 33.3825ZM113.163 32.8889C113.155 32.4448 112.995 32.0911 112.682 31.8278C112.37 31.5564 111.987 31.4207 111.535 31.4207C111.107 31.4207 110.745 31.5523 110.449 31.8155C110.161 32.0705 109.984 32.4283 109.918 32.8889H113.163Z" fill="white"/>
</svg>
