<svg width="147" height="51" viewBox="0 0 147 51" fill="none" xmlns="http://www.w3.org/2000/svg">
<rect x="0.5" width="145.746" height="50.8955" rx="7.71144" fill="black"/>
<path d="M58.4716 11.9145C58.2926 11.5382 58.0335 11.2483 57.6942 11.0447C57.3549 10.8349 56.9601 10.73 56.5098 10.73C56.0594 10.73 55.6523 10.8349 55.2883 11.0447C54.9305 11.2483 54.6467 11.5444 54.4369 11.933C54.2333 12.3155 54.1316 12.7597 54.1316 13.2656C54.1316 13.7714 54.2333 14.2156 54.4369 14.5981C54.6467 14.9806 54.9305 15.2767 55.2883 15.4865C55.6523 15.69 56.0594 15.7918 56.5098 15.7918C57.139 15.7918 57.6572 15.6037 58.0644 15.2274C58.4716 14.851 58.7091 14.3421 58.7769 13.7005H56.2044V13.0157H59.6745V13.6635C59.6252 14.194 59.4586 14.6814 59.1748 15.1256C58.8911 15.5636 58.5178 15.9121 58.0551 16.1712C57.5924 16.4242 57.0773 16.5506 56.5098 16.5506C55.9114 16.5506 55.3654 16.4118 54.8719 16.1342C54.3783 15.8504 53.9866 15.4587 53.6966 14.959C53.4128 14.4593 53.271 13.8948 53.271 13.2656C53.271 12.6363 53.4128 12.0718 53.6966 11.5721C53.9866 11.0663 54.3783 10.6745 54.8719 10.3969C55.3654 10.1131 55.9114 9.97124 56.5098 9.97124C57.1945 9.97124 57.7991 10.1409 58.3235 10.4802C58.854 10.8195 59.2396 11.2976 59.4802 11.9145H58.4716ZM65.4148 13.7653C65.4148 13.9257 65.4056 14.0953 65.3871 14.2742H61.3339C61.3648 14.7739 61.5344 15.1657 61.8429 15.4494C62.1575 15.7271 62.5369 15.8659 62.9811 15.8659C63.3451 15.8659 63.6474 15.7826 63.888 15.616C64.1347 15.4433 64.3075 15.215 64.4062 14.9312H65.313C65.1773 15.4186 64.9059 15.8165 64.4987 16.125C64.0915 16.4273 63.5857 16.5784 62.9811 16.5784C62.4999 16.5784 62.0681 16.4704 61.6856 16.2545C61.3092 16.0386 61.0131 15.7332 60.7972 15.3384C60.5813 14.9374 60.4733 14.4747 60.4733 13.9503C60.4733 13.426 60.5782 12.9664 60.788 12.5715C60.9977 12.1767 61.2907 11.8744 61.6671 11.6647C62.0495 11.4487 62.4876 11.3408 62.9811 11.3408C63.4623 11.3408 63.888 11.4457 64.2581 11.6554C64.6282 11.8652 64.912 12.1551 65.1094 12.5253C65.313 12.8892 65.4148 13.3026 65.4148 13.7653ZM64.545 13.5894C64.545 13.2686 64.474 12.9941 64.3321 12.7659C64.1902 12.5314 63.9959 12.3556 63.7491 12.2384C63.5085 12.115 63.2402 12.0533 62.9441 12.0533C62.5184 12.0533 62.1544 12.189 61.8521 12.4605C61.556 12.7319 61.3864 13.1083 61.3432 13.5894H64.545ZM67.5535 12.1181V15.1071C67.5535 15.3538 67.606 15.5296 67.7108 15.6345C67.8157 15.7332 67.9977 15.7826 68.2568 15.7826H68.8768V16.4951H68.118C67.6491 16.4951 67.2975 16.3872 67.0631 16.1712C66.8286 15.9553 66.7114 15.6006 66.7114 15.1071V12.1181H66.0544V11.4241H66.7114V10.1471H67.5535V11.4241H68.8768V12.1181H67.5535ZM72.7991 10.6005C72.6387 10.6005 72.503 10.545 72.3919 10.4339C72.2809 10.3229 72.2253 10.1872 72.2253 10.0268C72.2253 9.86636 72.2809 9.73064 72.3919 9.61959C72.503 9.50855 72.6387 9.45303 72.7991 9.45303C72.9533 9.45303 73.0829 9.50855 73.1877 9.61959C73.2988 9.73064 73.3543 9.86636 73.3543 10.0268C73.3543 10.1872 73.2988 10.3229 73.1877 10.4339C73.0829 10.545 72.9533 10.6005 72.7991 10.6005ZM73.2062 11.4241V16.4951H72.3642V11.4241H73.2062ZM75.6686 12.1181V15.1071C75.6686 15.3538 75.721 15.5296 75.8259 15.6345C75.9308 15.7332 76.1128 15.7826 76.3719 15.7826H76.9919V16.4951H76.2331C75.7642 16.4951 75.4126 16.3872 75.1782 16.1712C74.9437 15.9553 74.8265 15.6006 74.8265 15.1071V12.1181H74.1695V11.4241H74.8265V10.1471H75.6686V11.4241H76.9919V12.1181H75.6686ZM83.4034 16.5599C82.805 16.5599 82.259 16.4211 81.7655 16.1435C81.272 15.8597 80.8802 15.468 80.5903 14.9683C80.3065 14.4624 80.1646 13.8948 80.1646 13.2656C80.1646 12.6363 80.3065 12.0718 80.5903 11.5721C80.8802 11.0663 81.272 10.6745 81.7655 10.3969C82.259 10.1131 82.805 9.97124 83.4034 9.97124C84.008 9.97124 84.5571 10.1131 85.0506 10.3969C85.5441 10.6745 85.9328 11.0632 86.2166 11.5629C86.5003 12.0626 86.6422 12.6301 86.6422 13.2656C86.6422 13.901 86.5003 14.4686 86.2166 14.9683C85.9328 15.468 85.5441 15.8597 85.0506 16.1435C84.5571 16.4211 84.008 16.5599 83.4034 16.5599ZM83.4034 15.8288C83.8538 15.8288 84.2578 15.724 84.6157 15.5142C84.9796 15.3045 85.2634 15.0053 85.467 14.6166C85.6768 14.228 85.7816 13.7776 85.7816 13.2656C85.7816 12.7474 85.6768 12.297 85.467 11.9145C85.2634 11.5259 84.9827 11.2267 84.6249 11.0169C84.2671 10.8072 83.8599 10.7023 83.4034 10.7023C82.9469 10.7023 82.5397 10.8072 82.1819 11.0169C81.8241 11.2267 81.5403 11.5259 81.3306 11.9145C81.127 12.297 81.0252 12.7474 81.0252 13.2656C81.0252 13.7776 81.127 14.228 81.3306 14.6166C81.5403 15.0053 81.8241 15.3045 82.1819 15.5142C82.5459 15.724 82.9531 15.8288 83.4034 15.8288ZM90.2246 11.3315C90.8416 11.3315 91.3413 11.5197 91.7238 11.896C92.1062 12.2662 92.2975 12.8029 92.2975 13.5062V16.4951H91.4646V13.6265C91.4646 13.1206 91.3382 12.735 91.0852 12.4697C90.8323 12.1983 90.4868 12.0626 90.0488 12.0626C89.6046 12.0626 89.2499 12.2014 88.9846 12.479C88.7255 12.7566 88.596 13.1607 88.596 13.6912V16.4951H87.7539V11.4241H88.596V12.1459C88.7626 11.8868 88.9877 11.6863 89.2715 11.5444C89.5615 11.4025 89.8792 11.3315 90.2246 11.3315Z" fill="white"/>
<g clip-path="url(#clip0_1929_2222)">
<path d="M35.8422 27.7828L22.7866 20.5626C22.7057 20.5181 22.6141 20.4952 22.5212 20.4961C22.4282 20.4971 22.3371 20.5218 22.2572 20.5679C22.1769 20.6122 22.11 20.6762 22.0636 20.7536C22.0171 20.8309 21.9926 20.9188 21.9927 21.0083C21.9927 21.0083 21.9979 21.674 22.0031 22.7697L31.5133 31.9713L35.8422 27.7828Z" fill="url(#paint0_linear_1929_2222)"/>
<path d="M22.0022 22.7695C22.0181 26.7226 22.0657 36.3185 22.0869 41.0961L31.5183 31.9712L22.0022 22.7695Z" fill="url(#paint1_linear_1929_2222)"/>
<path d="M43.3144 31.9156L35.8419 27.7832L31.5076 31.9727L36.3974 36.704L43.3204 32.802C43.4004 32.7574 43.4669 32.6932 43.5133 32.616C43.5597 32.5387 43.5844 32.451 43.5849 32.3617C43.5841 32.2709 43.5587 32.182 43.5113 32.1037C43.4638 32.0254 43.3959 31.9605 43.3144 31.9156Z" fill="url(#paint2_linear_1929_2222)"/>
<path d="M22.082 41.0962C22.0925 42.8015 22.098 43.8921 22.098 43.8921C22.0972 43.9817 22.1213 44.0699 22.1679 44.1474C22.2144 44.2249 22.2817 44.2888 22.3625 44.3325C22.4428 44.3777 22.5341 44.4016 22.6271 44.4016C22.72 44.4016 22.8113 44.3777 22.8916 44.3325L36.4023 36.7079L31.5127 31.9766L22.082 41.0962Z" fill="url(#paint3_linear_1929_2222)"/>
</g>
<path d="M56.6014 30.9271C56.404 30.5652 56.1326 30.2897 55.7871 30.1005C55.4416 29.9113 55.0386 29.8167 54.5779 29.8167C54.068 29.8167 53.6156 29.9319 53.2207 30.1622C52.8259 30.3925 52.5174 30.7215 52.2954 31.1492C52.0733 31.577 51.9622 32.0705 51.9622 32.6298C51.9622 33.2056 52.0733 33.7074 52.2954 34.1351C52.5257 34.5628 52.8424 34.8919 53.2454 35.1222C53.6485 35.3525 54.1173 35.4676 54.652 35.4676C55.31 35.4676 55.8488 35.2949 56.2683 34.9494C56.6878 34.5957 56.9633 34.1063 57.095 33.4812H54.1338V32.161H58.7976V33.6663C58.6825 34.2667 58.4357 34.8219 58.0573 35.3319C57.679 35.8419 57.1895 36.2532 56.5891 36.5658C55.9968 36.8701 55.3306 37.0223 54.5903 37.0223C53.7595 37.0223 53.0069 36.8372 52.3324 36.467C51.6661 36.0887 51.1397 35.5664 50.7531 34.9001C50.3747 34.2338 50.1855 33.4771 50.1855 32.6298C50.1855 31.7826 50.3747 31.0259 50.7531 30.3596C51.1397 29.6851 51.6661 29.1628 52.3324 28.7926C53.0069 28.4142 53.7554 28.2251 54.5779 28.2251C55.5486 28.2251 56.3917 28.4636 57.1073 28.9407C57.8229 29.4095 58.3164 30.0717 58.5879 30.9271H56.6014ZM63.1108 37.0593C62.4528 37.0593 61.8606 36.9153 61.3341 36.6274C60.8077 36.3313 60.3923 35.9159 60.088 35.3813C59.7918 34.8466 59.6438 34.2297 59.6438 33.5305C59.6438 32.8314 59.796 32.2144 60.1003 31.6798C60.4129 31.1451 60.8365 30.7338 61.3711 30.446C61.9058 30.1498 62.5022 30.0018 63.1602 30.0018C63.8182 30.0018 64.4146 30.1498 64.9493 30.446C65.4839 30.7338 65.9034 31.1451 66.2078 31.6798C66.5203 32.2144 66.6766 32.8314 66.6766 33.5305C66.6766 34.2297 66.5162 34.8466 66.1954 35.3813C65.8829 35.9159 65.4551 36.3313 64.9122 36.6274C64.3776 36.9153 63.7771 37.0593 63.1108 37.0593ZM63.1108 35.554C63.4234 35.554 63.7154 35.48 63.9869 35.3319C64.2665 35.1756 64.4886 34.9453 64.6531 34.641C64.8176 34.3366 64.8999 33.9665 64.8999 33.5305C64.8999 32.8807 64.7272 32.3831 64.3817 32.0376C64.0444 31.6839 63.6291 31.507 63.1355 31.507C62.642 31.507 62.2266 31.6839 61.8894 32.0376C61.5603 32.3831 61.3958 32.8807 61.3958 33.5305C61.3958 34.1803 61.5562 34.6821 61.877 35.0358C62.206 35.3813 62.6173 35.554 63.1108 35.554ZM70.9789 37.0593C70.3209 37.0593 69.7286 36.9153 69.2022 36.6274C68.6758 36.3313 68.2604 35.9159 67.956 35.3813C67.6599 34.8466 67.5119 34.2297 67.5119 33.5305C67.5119 32.8314 67.664 32.2144 67.9684 31.6798C68.2809 31.1451 68.7046 30.7338 69.2392 30.446C69.7739 30.1498 70.3702 30.0018 71.0283 30.0018C71.6863 30.0018 72.2827 30.1498 72.8173 30.446C73.352 30.7338 73.7715 31.1451 74.0758 31.6798C74.3884 32.2144 74.5447 32.8314 74.5447 33.5305C74.5447 34.2297 74.3843 34.8466 74.0635 35.3813C73.7509 35.9159 73.3232 36.3313 72.7803 36.6274C72.2457 36.9153 71.6452 37.0593 70.9789 37.0593ZM70.9789 35.554C71.2915 35.554 71.5835 35.48 71.8549 35.3319C72.1346 35.1756 72.3567 34.9453 72.5212 34.641C72.6857 34.3366 72.768 33.9665 72.768 33.5305C72.768 32.8807 72.5952 32.3831 72.2498 32.0376C71.9125 31.6839 71.4971 31.507 71.0036 31.507C70.5101 31.507 70.0947 31.6839 69.7574 32.0376C69.4284 32.3831 69.2639 32.8807 69.2639 33.5305C69.2639 34.1803 69.4243 34.6821 69.7451 35.0358C70.0741 35.3813 70.4854 35.554 70.9789 35.554ZM78.4892 30.0018C78.9992 30.0018 79.4475 30.1046 79.8341 30.3102C80.2207 30.5076 80.525 30.7667 80.7471 31.0875V30.1128H82.4868V36.9976C82.4868 37.631 82.3593 38.1944 82.1043 38.6879C81.8493 39.1897 81.4668 39.5845 80.9569 39.8724C80.4469 40.1685 79.83 40.3166 79.1061 40.3166C78.1355 40.3166 77.3376 40.0904 76.7125 39.638C76.0956 39.1856 75.746 38.5687 75.6637 37.7872H77.3788C77.4692 38.0998 77.6625 38.3466 77.9587 38.5275C78.263 38.7167 78.629 38.8113 79.0568 38.8113C79.5585 38.8113 79.9657 38.6592 80.2783 38.3548C80.5908 38.0587 80.7471 37.6063 80.7471 36.9976V35.9365C80.525 36.2573 80.2166 36.5246 79.8217 36.7385C79.4351 36.9524 78.991 37.0593 78.4892 37.0593C77.9134 37.0593 77.387 36.9112 76.9099 36.6151C76.4328 36.319 76.0544 35.9036 75.7748 35.3689C75.5033 34.8261 75.3676 34.205 75.3676 33.5059C75.3676 32.8149 75.5033 32.2021 75.7748 31.6674C76.0544 31.1328 76.4287 30.7215 76.8976 30.4336C77.3746 30.1457 77.9052 30.0018 78.4892 30.0018ZM80.7471 33.5305C80.7471 33.111 80.6649 32.7532 80.5003 32.4571C80.3358 32.1528 80.1137 31.9224 79.8341 31.7662C79.5544 31.6016 79.2542 31.5194 78.9334 31.5194C78.6126 31.5194 78.3165 31.5975 78.045 31.7538C77.7736 31.9101 77.5515 32.1404 77.3788 32.4448C77.2142 32.7409 77.132 33.0946 77.132 33.5059C77.132 33.9171 77.2142 34.2791 77.3788 34.5916C77.5515 34.896 77.7736 35.1304 78.045 35.2949C78.3247 35.4594 78.6208 35.5417 78.9334 35.5417C79.2542 35.5417 79.5544 35.4635 79.8341 35.3072C80.1137 35.1427 80.3358 34.9124 80.5003 34.6163C80.6649 34.312 80.7471 33.95 80.7471 33.5305ZM85.9012 27.8179V36.9482H84.1739V27.8179H85.9012ZM93.9621 33.3825C93.9621 33.6292 93.9457 33.8513 93.9128 34.0487H88.9157C88.9569 34.5423 89.1296 34.9289 89.434 35.2085C89.7383 35.4882 90.1126 35.628 90.5567 35.628C91.1983 35.628 91.6548 35.3525 91.9263 34.8014H93.7894C93.592 35.4594 93.2136 36.0023 92.6542 36.43C92.0949 36.8495 91.4081 37.0593 90.5938 37.0593C89.9357 37.0593 89.3435 36.9153 88.817 36.6274C88.2988 36.3313 87.8917 35.9159 87.5955 35.3813C87.3076 34.8466 87.1637 34.2297 87.1637 33.5305C87.1637 32.8231 87.3076 32.2021 87.5955 31.6674C87.8834 31.1328 88.2865 30.7215 88.8047 30.4336C89.3229 30.1457 89.9193 30.0018 90.5938 30.0018C91.2436 30.0018 91.8235 30.1416 92.3335 30.4213C92.8517 30.7009 93.2506 31.0999 93.5303 31.6181C93.8182 32.1281 93.9621 32.7162 93.9621 33.3825ZM92.1731 32.8889C92.1648 32.4448 92.0044 32.0911 91.6919 31.8278C91.3793 31.5564 90.9968 31.4207 90.5444 31.4207C90.1167 31.4207 89.7547 31.5523 89.4586 31.8155C89.1707 32.0705 88.9939 32.4283 88.9281 32.8889H92.1731ZM104.443 31.0012C104.443 31.4618 104.332 31.8936 104.11 32.2967C103.896 32.6998 103.555 33.0247 103.086 33.2714C102.625 33.5182 102.041 33.6416 101.334 33.6416H99.8903V36.9482H98.1629V28.3361H101.334C102 28.3361 102.568 28.4513 103.037 28.6816C103.505 28.9119 103.855 29.2286 104.085 29.6316C104.324 30.0347 104.443 30.4912 104.443 31.0012ZM101.26 32.2473C101.737 32.2473 102.091 32.1404 102.321 31.9266C102.551 31.7045 102.666 31.396 102.666 31.0012C102.666 30.1622 102.198 29.7427 101.26 29.7427H99.8903V32.2473H101.26ZM107.397 27.8179V36.9482H105.67V27.8179H107.397ZM108.659 33.5059C108.659 32.8149 108.795 32.2021 109.067 31.6674C109.346 31.1328 109.72 30.7215 110.189 30.4336C110.666 30.1457 111.197 30.0018 111.781 30.0018C112.291 30.0018 112.735 30.1046 113.113 30.3102C113.5 30.5159 113.809 30.775 114.039 31.0875V30.1128H115.779V36.9482H114.039V35.9488C113.817 36.2696 113.508 36.537 113.113 36.7508C112.727 36.9565 112.279 37.0593 111.769 37.0593C111.193 37.0593 110.666 36.9112 110.189 36.6151C109.72 36.319 109.346 35.9036 109.067 35.3689C108.795 34.8261 108.659 34.205 108.659 33.5059ZM114.039 33.5305C114.039 33.111 113.957 32.7532 113.792 32.4571C113.628 32.1528 113.405 31.9224 113.126 31.7662C112.846 31.6016 112.546 31.5194 112.225 31.5194C111.904 31.5194 111.608 31.5975 111.337 31.7538C111.065 31.9101 110.843 32.1404 110.67 32.4448C110.506 32.7409 110.424 33.0946 110.424 33.5059C110.424 33.9171 110.506 34.2791 110.67 34.5916C110.843 34.896 111.065 35.1304 111.337 35.2949C111.616 35.4594 111.913 35.5417 112.225 35.5417C112.546 35.5417 112.846 35.4635 113.126 35.3072C113.405 35.1427 113.628 34.9124 113.792 34.6163C113.957 34.312 114.039 33.95 114.039 33.5305ZM124.005 30.1128L119.773 40.1809H117.934L119.415 36.7755L116.676 30.1128H118.613L120.377 34.8877L122.167 30.1128H124.005Z" fill="white"/>
<defs>
<linearGradient id="paint0_linear_1929_2222" x1="21.9927" y1="26.2337" x2="35.8422" y2="26.2337" gradientUnits="userSpaceOnUse">
<stop stop-color="#63BE6B"/>
<stop offset="0.506" stop-color="#5BBC6A"/>
<stop offset="1" stop-color="#4AB96A"/>
</linearGradient>
<linearGradient id="paint1_linear_1929_2222" x1="22.0022" y1="31.9328" x2="31.5088" y2="31.9328" gradientUnits="userSpaceOnUse">
<stop stop-color="#3EC6F2"/>
<stop offset="1" stop-color="#45AFE3"/>
</linearGradient>
<linearGradient id="paint2_linear_1929_2222" x1="31.5076" y1="32.2436" x2="43.5849" y2="32.2436" gradientUnits="userSpaceOnUse">
<stop stop-color="#FAA51A"/>
<stop offset="0.387" stop-color="#FAB716"/>
<stop offset="0.741" stop-color="#FAC412"/>
<stop offset="1" stop-color="#FAC80F"/>
</linearGradient>
<linearGradient id="paint3_linear_1929_2222" x1="22.082" y1="38.1891" x2="36.4023" y2="38.1891" gradientUnits="userSpaceOnUse">
<stop stop-color="#EC3B50"/>
<stop offset="1" stop-color="#E7515B"/>
</linearGradient>
<clipPath id="clip0_1929_2222">
<rect width="21.592" height="23.9055" fill="white" transform="translate(21.9924 20.4951)"/>
</clipPath>
</defs>
</svg>
