<svg width="110" height="37" viewBox="0 0 110 37" fill="none" xmlns="http://www.w3.org/2000/svg">
<path d="M20.6504 3.99353C22.8268 3.99353 24.5982 5.73061 24.5982 7.86474C24.5982 9.99886 22.8268 11.7359 20.6504 11.7359C18.474 11.7359 16.7025 9.99886 16.7025 7.86474C16.7025 5.73061 18.474 3.99353 20.6504 3.99353ZM26.2347 21.0004C28.4111 21.0004 30.1826 22.7375 30.1826 24.8716C30.1826 27.0057 28.4111 28.7428 26.2347 28.7428C24.0584 28.7428 22.2869 27.0057 22.2869 24.8716C22.2869 22.7375 24.0584 21.0004 26.2347 21.0004ZM8.50315 17.3939C10.6795 17.3939 12.451 19.1309 12.451 21.2651C12.451 23.3992 10.6795 25.1363 8.50315 25.1363C6.32677 25.1363 4.5553 23.3992 4.5553 21.2651C4.5553 19.1309 6.32677 17.3939 8.50315 17.3939Z" fill="#F16522"/>
<path d="M9.02615 10.9584C10.4433 10.9584 11.5906 12.0834 11.5906 13.473C11.5906 14.8627 10.4433 15.9876 9.02615 15.9876C7.60897 15.9876 6.46173 14.8627 6.46173 13.473C6.46173 12.0834 7.60897 10.9584 9.02615 10.9584ZM27.3482 9.93268C28.7654 9.93268 29.9127 11.0576 29.9127 12.4473C29.9127 13.837 28.7654 14.9619 27.3482 14.9619C25.9311 14.9619 24.7838 13.8204 24.7838 12.4308C24.7838 11.0411 25.9311 9.93268 27.3482 9.93268ZM18.9464 25.6491C20.3636 25.6491 21.5108 26.7741 21.5108 28.1637C21.5108 29.5534 20.3636 30.6784 18.9464 30.6784C17.5292 30.6784 16.382 29.5534 16.382 28.1637C16.382 26.7741 17.5292 25.6491 18.9464 25.6491Z" fill="#F6921E"/>
<path d="M12.9065 25.004C13.885 25.004 14.678 25.7815 14.678 26.7411C14.678 27.7006 13.885 28.4781 12.9065 28.4781C11.928 28.4781 11.135 27.7006 11.135 26.7411C11.135 25.7815 11.9111 25.004 12.9065 25.004ZM29.0691 16.3682C30.0476 16.3682 30.8405 17.1458 30.8405 18.1053C30.8405 19.0648 30.0476 19.8424 29.0691 19.8424C28.0905 19.8424 27.2976 19.0648 27.2976 18.1053C27.2976 17.1458 28.0737 16.3682 29.0691 16.3682ZM13.2945 7.35193C14.273 7.35193 15.066 8.12948 15.066 9.08901C15.066 10.0485 14.273 10.8261 13.2945 10.8261C12.316 10.8261 11.523 10.0485 11.523 9.08901C11.523 8.12948 12.316 7.35193 13.2945 7.35193Z" fill="#FFC10E"/>
<path d="M104.466 11.0081C104.686 11.0081 104.922 11.0742 105.107 11.1735C105.31 11.2893 105.479 11.4547 105.597 11.6533C105.715 11.8518 105.765 12.0668 105.765 12.2985C105.765 12.5301 105.698 12.7451 105.597 12.9437C105.479 13.1422 105.31 13.3076 105.107 13.4234C104.702 13.655 104.213 13.655 103.808 13.4234C103.606 13.3076 103.437 13.1422 103.319 12.9437C103.083 12.5466 103.083 12.0503 103.319 11.6533C103.437 11.4547 103.606 11.2893 103.808 11.1735C104.028 11.0742 104.247 11.0081 104.466 11.0081ZM104.466 11.2231C104.281 11.2231 104.095 11.2728 103.926 11.3555C103.758 11.4382 103.606 11.5871 103.521 11.7525C103.319 12.0834 103.319 12.497 103.521 12.8279C103.623 12.9933 103.758 13.1422 103.926 13.2249C104.264 13.4234 104.686 13.4234 105.023 13.2249C105.192 13.1422 105.344 12.9933 105.428 12.8279C105.529 12.6624 105.58 12.4804 105.58 12.2985C105.58 12.1165 105.529 11.918 105.428 11.7525C105.327 11.5871 105.192 11.4382 105.023 11.3555C104.854 11.2728 104.669 11.2231 104.466 11.2231ZM103.893 13.0098V11.6202H104.382C104.5 11.6202 104.618 11.6202 104.736 11.6533C104.804 11.6698 104.871 11.7194 104.922 11.7856C104.972 11.8518 104.989 11.918 104.989 11.9841C104.989 12.0834 104.956 12.1827 104.871 12.2488C104.787 12.3315 104.686 12.3646 104.584 12.3812C104.635 12.3977 104.669 12.4308 104.702 12.4474C104.787 12.5301 104.854 12.6293 104.905 12.7286L105.074 12.9933H104.787L104.669 12.7782C104.618 12.6624 104.534 12.5466 104.433 12.4639C104.382 12.4308 104.314 12.4143 104.247 12.4143H104.112V13.0098H103.893ZM104.129 12.2323H104.399C104.5 12.2488 104.584 12.2157 104.669 12.1827C104.719 12.1496 104.736 12.0834 104.736 12.0338C104.736 12.0007 104.719 11.951 104.702 11.918C104.686 11.8849 104.652 11.8518 104.601 11.8518C104.534 11.8352 104.449 11.8187 104.365 11.8352H104.112V12.2323H104.129ZM43.1058 31.0424V11.4878H45.2316V13.9528C45.7377 13.0098 46.3957 12.2819 47.2393 11.7691C48.066 11.2562 49.0276 10.9915 50.0061 11.0081C51.8957 11.0081 53.4141 11.6533 54.5614 12.9437C55.7086 14.2341 56.2822 15.9546 56.2822 18.0887C56.2822 20.2559 55.7255 21.993 54.5951 23.2669C53.4816 24.5407 51.9801 25.1859 50.1074 25.1859C49.0276 25.1859 48.0828 24.9378 47.2899 24.4415C46.4969 23.9452 45.839 23.2172 45.3328 22.2412V31.0258H43.1058V31.0424ZM45.2653 18.0887C45.2653 19.5611 45.6703 20.7522 46.4801 21.6291C47.2899 22.5224 48.3696 22.9691 49.7025 22.9691C51.0015 22.9691 52.0307 22.5555 52.7899 21.7449C53.5491 20.9342 53.9203 19.7927 53.9203 18.3534C53.9203 16.7321 53.5491 15.4748 52.7899 14.5484C52.0476 13.6219 51.0015 13.1753 49.6687 13.1753C48.3022 13.1753 47.2393 13.6054 46.4463 14.4822C45.6534 15.359 45.2653 16.5667 45.2653 18.0887ZM70.7071 11.4878V24.6235H68.5307V22.2412C68.0077 23.2007 67.3328 23.9286 66.523 24.4249C65.6963 24.9212 64.7515 25.1859 63.7899 25.1859C61.9172 25.1859 60.3988 24.5407 59.2515 23.2338C58.1043 21.9434 57.5307 20.2229 57.5307 18.0887C57.5307 15.9215 58.0874 14.201 59.2009 12.9271C60.3144 11.6533 61.816 11.0081 63.6718 11.0081C64.7684 11.0081 65.7132 11.2562 66.523 11.7525C67.3328 12.2488 67.9739 12.9767 68.4801 13.9528V11.4713H70.7071V11.4878ZM68.5307 18.188C68.5307 16.6991 68.1258 15.5079 67.316 14.598C66.5061 13.6881 65.4601 13.2414 64.1611 13.2414C62.8114 13.2414 61.7653 13.655 61.023 14.4988C60.2807 15.3425 59.8926 16.5005 59.8926 17.9895C59.8926 19.5777 60.2638 20.8019 61.023 21.6621C61.7822 22.5224 62.862 22.9525 64.2454 22.9525C65.5782 22.9525 66.6242 22.539 67.3834 21.6952C68.1595 20.8681 68.5307 19.6935 68.5307 18.188ZM86.043 11.4878V24.3918C86.043 25.8146 85.9417 26.8403 85.7561 27.4359C85.5706 28.0314 85.25 28.5939 84.8114 29.0571C84.204 29.7189 83.4279 30.2317 82.5675 30.5295C81.6902 30.8604 80.6779 31.0093 79.5307 31.0093C77.5399 31.0093 76.0046 30.5626 74.8911 29.6527C73.7776 28.7428 73.204 27.4524 73.1534 25.7815H75.6672V25.9469C75.6672 26.9396 76.0046 27.7006 76.6795 28.23C77.3543 28.7594 78.316 29.0406 79.5476 29.0406C80.4417 29.0406 81.2009 28.8917 81.842 28.6105C82.4494 28.3458 82.9555 27.8825 83.293 27.3035C83.4954 26.9561 83.6473 26.5756 83.7147 26.1786C83.7991 25.7484 83.8497 25.1363 83.8497 24.3257V22.1088C83.3436 23.0518 82.6856 23.7632 81.8589 24.276C81.0322 24.7723 80.0706 25.037 79.092 25.037C77.2193 25.037 75.7009 24.3918 74.5537 23.118C73.4064 21.8276 72.8328 20.1236 72.8328 18.006C72.8328 15.8553 73.3896 14.1513 74.5031 12.894C75.6166 11.6367 77.1181 11.0081 78.9739 11.0081C80.0537 11.0081 81.0153 11.2562 81.842 11.7525C82.6687 12.2488 83.3098 12.9767 83.7822 13.9363V11.4878H86.043ZM83.8834 18.1053C83.8834 16.6329 83.4785 15.4417 82.6856 14.5484C81.8926 13.655 80.8298 13.2084 79.5307 13.1918C78.181 13.1918 77.135 13.6054 76.3926 14.4491C75.6334 15.2763 75.2623 16.4509 75.2623 17.9398C75.2623 19.528 75.6334 20.7522 76.3926 21.6125C77.1518 22.4728 78.2316 22.9029 79.615 22.9029C80.9479 22.9029 81.9939 22.4728 82.7531 21.6291C83.4954 20.7853 83.8834 19.6107 83.8834 18.1053ZM101.446 11.4878V24.6235H99.2699V22.2412C98.7469 23.2007 98.0721 23.9286 97.2623 24.4249C96.4356 24.9212 95.4908 25.1859 94.5291 25.1859C92.6564 25.1859 91.138 24.5407 89.9908 23.2338C88.8436 21.9434 88.27 20.2229 88.27 18.0887C88.27 15.9215 88.8267 14.201 89.9402 12.9271C91.0537 11.6533 92.5552 11.0081 94.4111 11.0081C95.5077 11.0081 96.4525 11.2562 97.2623 11.7525C98.0721 12.2488 98.7132 12.9767 99.2193 13.9528V11.4713H101.446V11.4878ZM99.2699 18.188C99.2699 16.6991 98.865 15.5079 98.0552 14.598C97.2454 13.6881 96.1994 13.2414 94.9003 13.2414C93.5506 13.2414 92.5046 13.655 91.7623 14.4988C91.0031 15.3259 90.6319 16.5005 90.6319 17.9895C90.6319 19.5777 91.0031 20.8019 91.7623 21.6621C92.5215 22.5224 93.6012 22.9525 94.9847 22.9525C96.3175 22.9525 97.3635 22.539 98.1227 21.6952C98.8819 20.8515 99.2699 19.6935 99.2699 18.188Z" fill="#58595B"/>
</svg>
