<svg width="20" height="21" viewBox="0 0 20 21" fill="none" xmlns="http://www.w3.org/2000/svg">
<path d="M14.5833 17.752C13.8098 17.752 13.0679 17.4447 12.5209 16.8977C11.974 16.3507 11.6667 15.6088 11.6667 14.8353C11.6667 14.0617 11.974 13.3199 12.5209 12.7729C13.0679 12.2259 13.8098 11.9186 14.5833 11.9186C15.3569 11.9186 16.0987 12.2259 16.6457 12.7729C17.1927 13.3199 17.5 14.0617 17.5 14.8353C17.5 15.6088 17.1927 16.3507 16.6457 16.8977C16.0987 17.4447 15.3569 17.752 14.5833 17.752ZM14.5833 16.0853C14.9149 16.0853 15.2328 15.9536 15.4672 15.7192C15.7016 15.4847 15.8333 15.1668 15.8333 14.8353C15.8333 14.5038 15.7016 14.1858 15.4672 13.9514C15.2328 13.717 14.9149 13.5853 14.5833 13.5853C14.2518 13.5853 13.9339 13.717 13.6995 13.9514C13.465 14.1858 13.3333 14.5038 13.3333 14.8353C13.3333 15.1668 13.465 15.4847 13.6995 15.7192C13.9339 15.9536 14.2518 16.0853 14.5833 16.0853ZM5.41667 8.58529C5.03364 8.58529 4.65437 8.50984 4.30051 8.36327C3.94664 8.21669 3.62511 8.00185 3.35427 7.73101C3.08343 7.46018 2.86859 7.13865 2.72202 6.78478C2.57544 6.43091 2.5 6.05164 2.5 5.66862C2.5 5.2856 2.57544 4.90633 2.72202 4.55246C2.86859 4.19859 3.08343 3.87706 3.35427 3.60623C3.62511 3.33539 3.94664 3.12055 4.30051 2.97397C4.65437 2.82739 5.03364 2.75195 5.41667 2.75195C6.19021 2.75195 6.93208 3.05924 7.47906 3.60623C8.02604 4.15321 8.33333 4.89507 8.33333 5.66862C8.33333 6.44217 8.02604 7.18403 7.47906 7.73101C6.93208 8.278 6.19021 8.58529 5.41667 8.58529ZM5.41667 6.91862C5.74819 6.91862 6.06613 6.78692 6.30055 6.5525C6.53497 6.31808 6.66667 6.00014 6.66667 5.66862C6.66667 5.3371 6.53497 5.01916 6.30055 4.78474C6.06613 4.55032 5.74819 4.41862 5.41667 4.41862C5.08515 4.41862 4.7672 4.55032 4.53278 4.78474C4.29836 5.01916 4.16667 5.3371 4.16667 5.66862C4.16667 6.00014 4.29836 6.31808 4.53278 6.5525C4.7672 6.78692 5.08515 6.91862 5.41667 6.91862ZM15.8925 3.18112L17.0708 4.35945L4.10833 17.3228L2.93 16.1445L15.8917 3.18112H15.8925Z" fill="#14151A"/>
</svg>
