<svg width="43" height="43" viewBox="0 0 43 43" fill="none" xmlns="http://www.w3.org/2000/svg">
<circle cx="21.5644" cy="21.5653" r="20.8856" fill="#DE2070" fill-opacity="0.12"/>
<path d="M15.4727 13.8782C17.1682 12.6091 19.28 11.8477 21.5643 11.8477C27.1686 11.8477 31.717 16.3961 31.717 22.0004C31.717 27.6047 27.1686 32.1531 21.5643 32.1531C15.96 32.1531 11.4116 27.6047 11.4116 22.0004C11.4116 20.1627 11.899 18.4368 12.7619 16.9443L21.5643 22.0004" stroke="#DE2070" stroke-width="1.30535" stroke-miterlimit="10" stroke-linecap="round" stroke-linejoin="round"/>
<path d="M16.3155 18.9154C15.7609 19.8491 15.4697 20.9157 15.4728 22.0018C15.4728 25.3623 18.2039 28.0934 21.5644 28.0934C24.925 28.0934 27.6561 25.3623 27.6561 22.0018C27.6561 18.6412 24.925 15.9102 21.5644 15.9102C20.6405 15.9102 19.7572 16.1132 18.9755 16.4889" stroke="#DE2070" stroke-width="1.30535" stroke-miterlimit="10" stroke-linecap="round" stroke-linejoin="round"/>
</svg>
